{"glyphs":{":":{"x_min":0,"x_max":225,"ha":225,"o":"m 168 395 q 168 374 151 360 q 134 346 111 346 q 53 346 53 395 q 53 452 121 452 q 143 452 156 434 q 168 418 168 395 z m 168 47 q 168 26 151 12 q 134 -2 111 -2 q 53 -2 53 47 q 53 104 121 104 q 143 104 156 86 q 168 70 168 47 z"},"$":{"x_min":0,"x_max":533,"ha":533,"o":"m 495 194 q 495 107 429 58 q 383 24 301 13 q 293 12 293 4 q 293 -69 294 -137 l 259 -137 q 249 -137 249 -122 q 249 -125 251 -77 q 253 -29 253 0 q 253 8 242 8 q 163 4 117 33 q 61 68 61 116 q 61 129 75 138 q 86 146 98 146 q 116 146 135 131 q 153 115 174 61 q 182 40 251 40 q 254 40 255 43 q 255 36 256 133 q 258 229 258 283 q 258 291 252 293 q 192 307 133 352 q 70 400 70 478 q 70 551 134 608 q 180 648 255 657 q 259 658 259 665 l 259 709 q 259 722 288 722 q 305 722 305 714 q 305 713 304 694 q 303 675 303 664 q 303 658 308 658 q 373 660 418 634 q 463 607 460 575 q 455 550 424 553 q 399 556 377 573 q 358 589 354 604 q 348 626 309 628 q 303 628 303 622 q 303 600 301 513 q 298 426 298 389 q 298 383 304 381 q 404 348 448 304 q 495 257 495 194 z m 259 619 q 259 624 255 624 q 215 617 186 587 q 178 579 168 557 q 158 535 158 511 q 158 469 180 446 q 212 412 255 397 q 258 396 258 405 q 258 440 258 519 q 259 598 259 619 z m 410 157 q 410 208 369 238 q 339 259 303 271 q 296 274 296 265 q 296 187 294 47 q 297 43 300 44 q 341 55 378 87 q 410 115 410 157 z"},"?":{"x_min":0,"x_max":357,"ha":357,"o":"m 316 466 q 318 389 253 321 q 224 290 167 258 q 160 254 160 243 q 160 236 164 228 q 177 207 188 201 q 201 193 228 190 q 237 189 237 179 q 237 172 231 168 q 217 158 195 142 q 186 135 168 123 q 157 116 151 116 q 144 116 133 127 q 103 157 78 200 q 72 210 72 218 q 72 227 82 235 q 137 278 174 331 q 214 389 214 461 q 214 481 200 507 q 184 536 158 552 q 127 571 80 571 q 66 571 48 564 q 37 561 26 556 q 14 552 14 563 q 14 565 19 576 q 21 582 34 600 q 47 618 49 619 q 51 623 62 626 q 83 633 133 633 q 178 633 221 614 q 258 597 276 576 q 314 531 316 466 z m 213 48 q 213 -6 153 -6 q 111 -6 111 38 q 111 88 184 88 q 213 88 213 48 z"},"<":{"x_min":0,"x_max":506,"ha":506,"o":"m 382 58 q 382 58 373 46 q 367 42 358 41 q 353 41 341 50 q 273 110 156 210 q 143 224 143 226 q 143 229 149 237 l 146 240 q 142 246 141 250 q 141 258 150 266 q 214 332 318 442 q 331 455 334 455 q 341 454 351 449 q 356 445 359 439 q 360 438 352 423 q 331 398 292 338 q 250 271 234 250 l 228 242 l 237 236 q 285 183 371 73 q 382 58 382 58 z"},"'":{"x_min":0,"x_max":188,"ha":188,"o":"m 129 450 q 123 433 116 433 q 106 433 92 440 q 78 447 72 453 q 67 458 72 474 q 74 483 74 494 q 74 513 65 552 q 56 591 56 612 q 56 628 59 642 q 62 653 71 659 q 76 659 83 656 q 105 648 117 638 q 122 634 119 618 q 117 607 117 596 q 117 576 125 539 q 133 503 133 484 q 133 466 129 450 z"},"=":{"x_min":0,"x_max":506,"ha":506,"o":"m 391 344 q 386 327 376 324 q 374 323 252 316 q 130 308 122 308 q 108 308 106 310 q 98 314 105 342 q 110 360 120 362 q 121 362 247 370 q 372 378 376 378 q 387 379 390 376 q 399 371 391 344 z m 395 233 q 390 209 377 209 q 376 209 250 201 q 125 192 119 192 q 103 192 103 192 q 93 197 101 223 q 108 244 120 246 q 122 246 248 253 q 375 260 379 260 q 390 260 393 258 q 400 252 395 233 z"},"a":{"x_min":0,"x_max":461,"ha":461,"o":"m 461 32 q 460 30 456 25 q 431 0 411 -10 q 407 -13 402 -13 q 366 -13 328 14 q 291 41 276 77 q 272 86 268 79 q 250 49 223 28 q 180 -6 132 -6 q 95 -6 66 11 q 33 31 33 72 q 33 121 64 158 q 95 195 148 214 q 204 234 267 249 q 271 250 272 260 q 275 333 272 358 q 269 382 251 397 q 231 413 198 413 q 166 413 144 400 q 134 394 134 378 l 134 359 q 134 333 123 317 q 107 288 69 288 q 39 288 39 313 q 39 336 63 369 q 87 402 119 420 q 169 448 240 448 q 303 448 339 419 q 352 409 360 382 q 368 358 367 339 l 358 148 q 356 94 387 70 q 415 49 453 38 q 461 36 461 32 z m 270 211 q 270 220 262 220 q 229 220 192 201 q 122 166 122 107 q 122 72 140 56 q 157 41 180 44 q 219 49 252 94 q 261 106 263 121 q 270 168 270 211 z"},"L":{"x_min":0,"x_max":575,"ha":575,"o":"m 582 82 q 582 75 563 43 q 562 42 546 10 q 541 0 535 0 l 41 0 q 35 0 35 5 l 35 27 q 35 32 40 32 l 105 32 q 114 32 114 42 q 114 42 112 82 q 111 122 111 151 q 111 196 113 347 q 115 498 115 526 q 115 630 95 630 l 50 630 q 42 630 42 636 l 42 656 q 42 662 49 662 l 326 662 q 331 662 331 658 l 331 635 q 331 630 327 630 l 236 630 q 228 630 226 623 q 225 617 222 389 q 219 177 219 144 q 219 31 245 31 q 363 31 423 36 q 491 42 560 82 q 572 89 576 89 q 582 85 582 82 z"},"3":{"x_min":0,"x_max":491,"ha":491,"o":"m 457 192 q 457 104 358 37 q 291 -8 174 -8 q 114 -8 60 18 q 52 22 52 28 q 52 36 55 39 q 57 43 62 45 q 63 45 79 39 q 113 25 167 25 q 201 25 231 36 q 272 51 288 65 q 352 123 352 189 q 352 244 296 283 q 259 309 172 322 q 164 323 164 345 q 164 351 184 357 q 227 371 272 409 q 305 437 305 504 q 305 544 281 572 q 259 598 211 598 q 152 598 103 566 q 94 559 88 560 q 79 564 76 569 q 69 576 74 582 q 104 621 150 640 q 203 662 274 658 q 328 655 363 626 q 410 588 408 536 q 406 479 346 419 q 301 375 284 365 q 273 358 287 355 q 359 341 404 305 q 457 262 457 192 z"},";":{"x_min":0,"x_max":235,"ha":235,"o":"m 179 395 q 179 374 162 360 q 145 346 122 346 q 64 346 64 395 q 64 452 132 452 q 154 452 167 434 q 179 418 179 395 z m 206 -21 q 206 -83 130 -136 q 114 -147 111 -147 q 86 -147 86 -137 q 86 -130 97 -120 q 138 -81 138 -40 q 138 -35 122 -7 q 120 -4 100 -4 q 81 -4 64 9 q 47 22 47 42 q 47 46 48 50 q 55 86 120 86 q 153 86 180 54 q 206 21 206 -21 z"},"J":{"x_min":0,"x_max":356,"ha":356,"o":"m 301 635 q 301 632 300 631 q 299 630 295 630 l 233 630 q 228 630 228 622 q 228 619 228 469 q 227 319 227 300 q 227 282 228 172 q 228 62 228 47 q 228 -80 223 -103 q 206 -183 123 -227 q 72 -253 -24 -253 q -110 -253 -116 -196 q -118 -182 -106 -171 q -94 -161 -73 -162 q -41 -162 -19 -182 q 1 -202 21 -223 q 26 -228 35 -227 q 76 -221 104 -162 q 121 -125 121 -30 l 121 257 q 121 464 118 511 q 117 545 115 579 q 111 630 98 630 l 34 630 q 29 630 29 636 l 29 657 q 29 662 34 662 l 295 662 q 301 662 301 657 z"},"V":{"x_min":0,"x_max":697,"ha":697,"o":"m 688 635 q 688 630 685 630 l 654 630 q 644 630 639 623 q 587 501 523 353 q 449 192 378 14 q 369 -9 354 -9 q 339 -9 331 8 q 261 169 186 343 q 158 406 130 468 q 81 575 54 613 q 42 630 26 630 l 17 630 q 13 630 12 631 q 11 633 11 635 l 11 657 q 11 662 16 662 l 240 662 q 246 662 246 658 l 246 636 q 246 630 242 630 l 196 630 q 183 630 183 618 q 183 606 188 595 q 235 491 288 372 q 354 204 379 154 q 383 144 388 144 q 391 144 395 150 q 405 166 448 274 q 471 331 493 387 q 530 470 558 548 q 574 593 572 611 q 570 630 555 630 l 505 630 q 498 630 498 635 l 498 657 q 498 662 502 662 l 683 662 q 688 662 688 658 z"},"\"":{"x_min":0,"x_max":296,"ha":296,"o":"m 244 450 q 238 433 231 433 q 222 433 207 440 q 192 447 187 453 q 182 458 187 474 q 189 483 189 494 q 189 513 180 552 q 170 591 170 612 q 170 628 174 642 q 177 653 186 659 q 190 659 199 656 q 220 648 232 638 q 237 634 234 618 q 232 607 232 596 q 232 576 240 539 q 249 503 249 484 q 249 466 244 450 z m 129 450 q 123 433 116 433 q 106 433 92 440 q 78 447 72 453 q 67 458 72 474 q 74 483 74 494 q 74 513 65 552 q 56 591 56 612 q 56 628 59 642 q 62 653 71 659 q 76 659 83 656 q 105 648 117 638 q 122 634 119 618 q 117 607 117 596 q 117 576 125 539 q 133 503 133 484 q 133 466 129 450 z"},"7":{"x_min":0,"x_max":470,"ha":470,"o":"m 490 637 q 490 627 484 619 q 465 591 393 486 q 339 409 292 309 q 247 213 228 143 q 214 89 211 27 q 210 5 215 -35 q 216 -46 206 -46 q 205 -46 170 -31 q 152 -24 124 -11 q 117 -6 117 12 q 117 50 130 96 q 152 173 187 244 q 256 384 317 464 q 341 497 375 542 q 387 557 387 561 q 387 564 381 564 q 378 564 373 563 q 283 545 193 545 q 100 545 37 560 q 26 562 26 567 q 26 571 29 579 q 35 594 44 614 q 49 628 57 648 q 61 656 68 656 q 71 656 94 650 q 163 632 287 632 q 321 632 394 639 q 457 646 466 648 q 474 650 476 650 q 490 650 490 637 z"},"S":{"x_min":0,"x_max":519,"ha":519,"o":"m 481 176 q 481 103 422 48 q 389 18 351 5 q 310 -8 242 -8 q 145 -8 58 38 q 51 42 51 58 q 51 62 50 118 q 50 174 50 178 q 50 184 60 184 l 80 184 q 89 184 90 178 q 90 160 93 143 q 101 99 138 67 q 176 34 243 34 q 334 34 368 93 q 383 119 383 162 q 383 201 356 224 q 330 254 252 279 q 166 306 113 351 q 61 396 61 485 q 61 567 134 626 q 190 671 281 671 q 380 671 437 627 q 445 621 446 614 q 451 582 451 513 q 451 503 447 503 l 423 503 q 417 503 416 509 q 412 526 406 546 q 396 576 370 594 q 325 625 254 625 q 200 625 170 596 q 137 563 138 511 q 139 476 170 443 q 186 426 282 388 q 340 365 366 352 q 409 329 439 299 q 481 257 481 176 z"},"}":{"x_min":0,"x_max":404,"ha":404,"o":"m 350 248 q 350 232 329 232 q 305 232 282 215 q 255 197 255 173 q 255 126 273 59 q 291 -9 291 -60 q 291 -141 251 -194 q 206 -253 123 -253 l 19 -253 q 12 -253 12 -249 l 12 -233 q 12 -227 18 -227 l 82 -227 q 146 -227 176 -167 q 202 -118 202 -35 q 202 14 189 79 q 177 144 177 171 q 177 201 208 223 q 231 235 253 247 q 177 265 177 317 q 177 345 189 402 q 202 458 202 507 q 202 587 175 639 q 143 699 82 699 l 18 699 q 12 699 12 705 l 12 721 q 12 725 19 725 l 123 725 q 196 725 245 666 q 291 609 291 532 q 291 481 273 422 q 255 362 255 315 q 255 292 282 277 q 304 264 329 264 q 350 264 350 248 z"},"Z":{"x_min":0,"x_max":660,"ha":660,"o":"m 650 148 q 650 143 625 68 q 617 40 605 2 q 600 -11 579 -13 q 578 -13 545 -13 q 533 -13 365 -5 q 260 0 171 0 q 126 0 81 -3 q 67 -4 54 -5 q 43 -7 42 -7 q 27 -7 27 0 q 27 5 38 21 q 47 35 212 235 q 285 323 438 501 q 463 530 480 559 q 483 564 479 567 q 475 570 462 569 q 394 565 275 565 q 244 565 197 566 q 149 567 143 567 q 87 567 72 560 q 55 550 52 551 q 39 553 39 558 q 39 567 59 604 q 79 642 86 659 q 90 665 99 664 q 209 651 379 651 q 387 651 459 652 q 532 653 536 653 q 550 653 583 656 q 617 659 616 659 q 628 659 631 651 q 632 646 624 637 l 364 343 q 333 311 274 241 q 190 143 158 90 q 153 82 155 80 q 156 78 164 80 q 195 89 291 89 q 341 89 432 84 q 522 79 522 79 q 594 79 622 137 q 629 151 632 151 l 644 151 q 650 151 650 148 z"},"x":{"x_min":0,"x_max":567,"ha":567,"o":"m 556 7 q 556 0 553 0 l 320 0 q 315 0 315 5 l 315 23 q 315 28 319 28 l 370 28 q 379 28 379 35 q 379 42 372 51 q 345 89 273 190 q 269 196 262 191 q 204 144 181 114 q 148 71 148 49 q 148 28 166 28 l 212 28 q 216 28 216 21 l 216 7 q 216 0 210 0 l 19 0 q 12 0 12 5 l 12 25 q 12 29 18 29 l 53 29 q 63 29 71 40 q 73 42 91 66 q 139 127 176 160 q 219 198 242 215 q 250 221 246 225 q 217 264 174 317 q 125 377 106 397 q 89 415 63 415 l 41 415 q 36 415 36 420 l 36 438 q 36 444 41 444 l 271 444 q 275 444 275 439 l 275 420 q 275 416 270 416 l 228 416 q 216 416 216 408 q 216 399 229 382 q 248 355 306 280 q 312 273 317 280 q 341 303 380 342 q 406 368 406 402 q 406 416 389 416 l 347 416 q 343 416 343 420 l 343 439 q 343 441 344 443 q 345 444 349 444 l 538 444 q 543 444 543 440 l 543 420 q 543 415 537 415 l 507 415 q 493 415 481 400 q 447 358 390 303 q 371 284 337 254 q 331 248 336 241 q 411 147 452 91 q 498 29 521 29 l 553 29 q 556 29 556 25 z"},")":{"x_min":0,"x_max":404,"ha":404,"o":"m 341 236 q 341 77 254 -55 q 180 -167 72 -242 q 57 -252 52 -252 q 46 -252 36 -243 q 29 -236 29 -231 q 29 -226 36 -219 q 99 -169 128 -126 q 172 -60 199 31 q 227 127 227 222 q 227 410 170 536 q 153 572 110 629 q 68 683 37 709 q 25 720 25 724 q 25 728 30 733 q 41 744 50 742 q 60 740 70 732 q 147 675 218 583 q 341 423 341 236 z"},"&":{"x_min":0,"x_max":908,"ha":908,"o":"m 899 123 q 899 105 891 89 q 865 37 826 6 q 807 -9 779 -9 q 722 -9 674 6 q 627 21 597 37 q 587 42 579 38 q 493 -6 356 -6 q 177 -6 99 62 q 32 120 34 233 q 35 295 65 355 q 83 392 109 409 q 134 426 151 435 q 156 437 150 447 q 142 461 130 481 q 116 510 116 537 q 116 551 131 568 q 178 622 232 648 q 242 653 272 653 q 311 653 352 643 q 383 635 401 624 q 414 616 412 610 q 406 582 392 540 q 385 519 380 519 q 377 519 366 532 q 356 543 337 554 q 285 583 230 583 q 192 583 192 556 q 192 544 203 526 q 230 481 268 435 q 328 362 366 328 q 369 325 371 324 q 379 318 379 326 q 379 403 428 437 q 479 473 541 473 q 591 473 654 456 q 706 442 772 442 q 808 442 827 457 q 852 477 846 503 q 844 514 847 516 q 856 525 864 525 q 866 525 873 518 q 883 508 885 485 q 890 437 871 410 q 839 364 798 363 q 740 361 706 376 q 701 378 699 375 q 698 373 701 368 q 723 333 726 285 q 727 274 727 264 q 727 177 672 115 q 668 110 675 105 q 686 94 727 81 q 759 71 788 71 q 832 71 868 121 q 877 134 881 133 q 885 132 895 129 q 899 127 899 123 z m 668 272 q 668 333 630 369 q 591 414 523 414 q 477 414 449 394 q 443 389 435 372 q 425 350 425 328 q 425 277 446 256 q 469 232 519 197 q 572 159 608 141 q 621 135 628 143 q 668 192 668 272 z m 538 71 q 497 90 441 132 q 367 188 318 237 q 227 328 183 395 q 178 401 172 399 q 123 374 123 285 q 123 190 195 118 q 237 76 311 56 q 359 43 419 43 q 488 43 532 61 q 547 67 538 71 z"},"_":{"x_min":0,"x_max":405,"ha":405,"o":"m 401 -174 q 396 -182 386 -182 l 19 -182 q 9 -182 4 -174 q -4 -162 4 -147 q 9 -137 19 -137 q 251 -141 386 -137 q 396 -137 401 -147 q 409 -162 401 -174 z"},"v":{"x_min":0,"x_max":492,"ha":492,"o":"m 484 418 q 484 414 481 414 l 460 414 q 453 414 448 404 q 433 371 412 329 q 386 277 288 60 q 279 40 267 11 q 259 -7 247 -7 q 236 -7 225 16 q 224 19 179 119 q 135 220 133 225 q 74 351 67 371 q 46 415 28 415 l 10 415 q 3 415 3 420 l 3 439 q 3 444 10 444 l 212 444 q 217 444 217 439 l 217 420 q 217 415 213 415 l 164 415 q 157 415 157 405 q 157 399 161 386 q 163 380 180 338 q 198 294 201 289 q 230 220 269 132 q 274 121 277 121 q 280 121 285 132 q 337 248 348 274 q 379 349 379 393 q 379 414 365 414 l 312 414 q 307 414 307 419 l 307 438 q 307 442 309 443 q 310 444 312 444 l 478 444 q 484 444 484 439 z"},"O":{"x_min":0,"x_max":754,"ha":754,"o":"m 717 346 q 717 200 640 105 q 587 40 497 11 q 444 -6 372 -6 q 257 -6 189 27 q 143 49 113 82 q 37 165 37 325 q 37 393 56 450 q 78 516 125 567 q 172 618 251 647 q 311 669 382 669 q 486 669 549 642 q 614 614 651 566 q 717 480 717 346 z m 605 322 q 605 397 592 443 q 576 499 538 547 q 507 586 458 608 q 406 631 353 631 q 290 631 254 608 q 203 575 178 514 q 150 446 150 351 q 150 209 199 126 q 228 77 289 46 q 335 23 393 23 q 454 23 508 61 q 549 90 579 160 q 605 221 605 322 z"},"(":{"x_min":0,"x_max":404,"ha":404,"o":"m 380 725 q 380 721 368 710 q 336 684 293 629 q 249 573 231 536 q 173 410 173 223 q 173 127 202 32 q 229 -60 275 -125 q 304 -168 369 -219 q 376 -226 376 -230 q 376 -235 369 -242 q 359 -252 353 -252 q 348 -252 333 -241 q 221 -166 146 -55 q 56 77 56 236 q 56 424 182 583 q 255 675 334 732 q 345 740 355 742 q 364 744 375 733 q 380 729 380 725 z"},"C":{"x_min":0,"x_max":705,"ha":705,"o":"m 680 87 q 681 85 672 77 q 633 41 545 13 q 484 -6 370 -9 q 318 -10 256 6 q 174 28 124 74 q 39 152 39 310 q 39 400 87 487 q 127 559 206 608 q 309 672 441 672 q 513 672 589 655 q 629 646 661 629 q 664 627 663 623 q 657 581 651 543 q 648 524 644 496 q 643 485 636 487 q 628 487 628 492 q 628 501 625 513 q 619 530 614 538 q 607 550 594 562 q 523 626 432 626 q 304 626 236 552 q 154 463 154 326 q 154 176 240 93 q 303 32 422 32 q 479 32 542 58 q 580 74 609 109 q 615 117 624 141 q 632 163 633 171 q 634 180 641 180 q 646 180 648 176 q 651 164 659 146 q 664 136 680 87 z"},"W":{"x_min":0,"x_max":1149,"ha":1149,"o":"m 1138 635 q 1138 632 1137 631 q 1136 630 1132 630 l 1094 630 q 1084 630 1078 620 q 1074 614 1017 485 q 959 356 956 347 q 952 336 891 192 q 828 42 810 3 q 802 -15 790 -15 q 776 -15 769 1 q 671 224 651 279 q 633 329 576 447 q 568 463 564 451 q 540 386 487 272 q 434 148 368 3 q 360 -11 348 -11 q 334 -11 326 7 q 264 150 196 304 q 141 429 80 566 q 72 586 47 622 q 38 630 24 630 l 15 630 q 10 630 10 636 l 10 657 q 10 662 14 662 l 230 662 q 238 662 238 656 l 238 635 q 238 630 233 630 l 188 630 q 178 630 178 622 q 178 613 182 603 q 271 400 282 371 q 348 199 378 145 q 384 134 391 144 q 421 215 456 296 q 494 380 539 511 q 542 519 532 538 q 517 568 497 603 q 481 630 467 630 l 434 630 q 429 630 429 635 l 429 657 q 429 662 434 662 l 690 662 q 694 662 695 661 q 696 659 696 657 l 696 636 q 696 630 689 630 l 623 630 q 617 630 617 623 q 617 616 626 596 q 658 527 727 361 q 766 268 817 151 q 826 135 832 147 q 869 235 911 335 q 970 474 991 539 q 1008 593 1008 608 q 1008 630 988 630 l 939 630 q 933 630 933 636 l 933 656 q 933 662 940 662 l 1131 662 q 1138 662 1138 656 z"},"A":{"x_min":0,"x_max":697,"ha":697,"o":"m 687 5 q 687 0 684 0 l 445 0 q 442 0 442 6 l 442 25 q 442 32 448 32 l 507 32 q 514 32 513 41 q 513 42 512 45 q 509 55 480 138 q 449 223 446 230 q 442 240 435 240 l 202 240 q 196 239 194 234 q 169 164 154 110 q 142 75 139 48 q 140 32 148 32 l 221 32 q 227 32 227 25 l 227 5 q 227 0 222 0 l 15 0 q 10 0 10 5 l 10 27 q 10 32 14 32 l 51 32 q 60 32 75 61 q 132 195 193 337 q 305 592 320 624 q 333 651 341 672 q 347 688 352 689 q 376 693 410 700 q 416 702 417 702 q 421 702 424 698 q 428 694 428 689 q 425 686 423 683 q 421 680 413 670 q 404 658 404 649 q 404 640 411 612 q 419 580 460 476 q 467 459 522 305 q 573 164 610 87 q 637 32 648 32 l 683 32 q 687 32 687 25 z m 425 282 q 419 300 379 410 q 361 466 342 527 q 337 544 330 544 q 323 544 317 527 q 298 482 276 427 q 248 360 216 285 q 214 279 214 277 q 214 275 218 275 l 423 275 q 427 275 425 282 z"},"f":{"x_min":0,"x_max":329,"ha":329,"o":"m 377 696 q 377 667 343 667 q 297 667 266 708 q 258 716 254 716 q 237 716 218 695 q 191 665 191 601 q 191 606 190 554 q 189 502 189 453 q 189 443 196 443 q 206 443 283 444 q 288 444 288 439 l 288 413 q 288 407 283 407 q 280 407 240 408 q 201 409 199 409 q 191 409 191 402 q 191 399 192 268 q 193 137 193 130 q 193 103 197 72 q 203 29 213 29 l 281 29 q 286 29 286 25 l 286 5 q 286 0 282 0 l 26 0 q 20 0 20 4 l 20 24 q 20 29 27 29 l 94 29 q 101 29 101 37 q 101 40 100 100 q 98 160 98 166 l 98 396 q 98 408 92 408 q 86 408 50 407 q 47 407 46 408 q 45 409 45 414 l 45 435 q 45 443 51 443 q 53 443 70 443 q 87 444 93 444 q 98 444 98 451 l 98 592 q 98 627 115 661 q 131 693 156 710 q 188 732 214 739 q 237 745 280 745 q 328 745 355 726 q 377 711 377 696 z"},"Q":{"x_min":0,"x_max":772,"ha":772,"o":"m 800 -190 q 800 -199 713 -206 q 653 -210 599 -210 q 578 -210 562 -201 q 512 -171 455 -118 q 416 -83 354 -14 q 348 -5 333 -5 q 257 -4 201 22 q 151 44 123 75 q 45 158 45 315 q 45 393 66 452 q 92 526 136 571 q 178 614 252 643 q 319 669 396 669 q 510 669 573 640 q 628 615 673 556 q 736 474 736 352 q 736 201 652 105 q 612 59 554 29 q 510 6 468 0 q 454 -2 460 -8 q 502 -50 587 -102 q 640 -135 686 -152 q 731 -170 762 -170 q 788 -170 795 -169 q 800 -169 800 -174 z m 619 322 q 619 397 606 443 q 590 499 552 547 q 521 586 472 608 q 420 631 367 631 q 304 631 268 608 q 217 575 192 514 q 164 446 164 351 q 164 209 213 126 q 242 77 303 46 q 349 23 407 23 q 468 23 522 61 q 563 90 593 160 q 619 221 619 322 z"},"w":{"x_min":0,"x_max":819,"ha":819,"o":"m 812 419 q 812 414 807 414 l 788 414 q 772 414 762 390 q 722 308 677 217 q 630 117 578 4 q 569 -17 558 -17 q 544 -17 535 4 q 490 104 468 160 q 438 235 415 282 q 410 293 404 283 q 377 225 336 135 q 290 35 276 -1 q 270 -17 260 -17 q 246 -17 236 5 q 137 217 133 233 q 131 238 96 312 q 62 383 59 389 q 46 414 33 414 l 10 414 q 6 414 5 416 q 4 417 4 419 l 4 439 q 4 444 11 444 l 202 444 q 208 444 208 440 l 208 418 q 208 414 204 414 l 169 414 q 162 414 162 406 q 162 394 167 385 q 189 333 214 272 q 257 168 275 129 q 282 114 289 127 q 311 171 337 224 q 369 289 382 333 q 383 341 379 350 q 369 373 359 388 q 343 414 329 414 l 299 414 q 294 414 294 418 l 294 438 q 294 444 299 444 l 504 444 q 509 444 509 439 l 509 419 q 509 414 507 414 l 471 414 q 462 414 463 405 q 464 398 469 384 q 500 302 529 239 q 551 184 581 116 q 585 106 591 119 q 648 237 683 325 q 701 370 699 390 q 697 414 683 414 l 642 414 q 635 414 635 420 l 635 439 q 635 441 636 443 q 637 444 641 444 l 807 444 q 812 444 812 440 z"},"-":{"x_min":0,"x_max":386,"ha":386,"o":"m 330 315 q 332 298 320 291 q 317 289 203 241 q 90 194 82 192 q 70 188 64 189 q 56 191 56 214 q 56 225 58 232 q 61 239 67 241 q 127 263 306 334 q 315 337 320 336 q 330 333 330 315 z"},"E":{"x_min":0,"x_max":584,"ha":584,"o":"m 582 85 q 562 49 536 6 q 532 0 525 0 l 40 0 q 35 0 35 6 l 35 27 q 35 32 39 32 l 115 32 q 122 32 123 34 q 125 37 125 42 q 125 46 124 189 q 123 332 123 337 q 123 341 123 433 q 122 525 122 531 q 122 630 102 630 l 40 630 q 35 630 35 635 l 35 657 q 35 660 36 661 q 37 662 41 662 l 500 662 q 509 662 526 663 q 542 664 542 664 q 548 664 547 659 q 538 627 525 586 q 521 575 515 575 q 516 575 506 584 q 485 604 446 611 q 345 629 234 630 q 226 630 226 624 q 224 456 224 384 q 224 374 232 374 l 448 374 q 454 374 456 382 q 459 408 464 439 q 464 448 470 448 l 490 448 q 497 448 497 440 q 497 438 495 399 q 493 360 493 353 q 493 346 494 302 q 495 258 495 255 q 495 244 489 244 l 468 244 q 462 244 462 251 q 462 271 456 325 q 455 335 447 335 q 443 335 338 337 q 234 339 231 339 q 225 339 225 330 l 225 143 q 225 31 251 31 q 459 31 554 81 q 577 93 577 93 q 579 93 581 90 q 583 87 582 85 z"},"s":{"x_min":0,"x_max":409,"ha":409,"o":"m 383 128 q 383 78 346 37 q 305 -8 211 -8 q 107 -8 39 42 q 32 49 32 64 q 32 69 31 112 q 30 155 30 158 q 30 168 44 168 q 55 168 57 160 q 63 136 69 120 q 87 73 115 47 q 124 39 132 36 q 162 26 210 26 q 266 26 288 51 q 311 72 311 109 q 311 128 292 140 q 260 159 211 174 q 160 189 135 202 q 83 229 64 251 q 40 281 40 337 q 40 379 74 415 q 125 457 204 457 q 301 457 352 412 q 356 409 356 399 l 356 324 q 356 312 349 312 q 334 312 331 319 q 322 338 314 356 q 301 383 287 398 q 284 400 276 406 q 248 423 205 423 q 168 423 144 410 q 116 395 115 362 q 114 310 183 286 q 212 275 261 258 q 314 241 340 221 q 383 188 383 128 z"},">":{"x_min":0,"x_max":506,"ha":506,"o":"m 347 250 q 345 247 341 240 l 337 237 q 343 232 345 226 q 345 224 331 210 q 262 148 146 50 q 134 41 128 41 q 123 42 115 46 q 104 60 104 64 q 104 64 115 80 q 177 157 245 230 l 254 236 l 248 244 q 230 267 191 335 q 155 399 136 423 q 127 438 127 439 q 129 441 137 449 q 143 454 153 455 q 157 455 168 442 q 236 375 336 266 q 347 258 347 250 z"},"l":{"x_min":0,"x_max":282,"ha":282,"o":"m 274 4 q 274 0 269 0 l 18 0 q 11 0 11 5 l 11 23 q 11 29 17 29 l 85 29 q 95 29 95 40 l 95 576 q 95 688 75 688 l 24 688 q 18 688 18 694 l 18 710 q 18 717 22 717 l 68 717 q 106 717 150 728 q 186 737 185 737 q 196 737 196 723 q 196 722 192 434 q 189 146 189 136 q 189 29 208 29 l 269 29 q 274 29 274 24 z"},"8":{"x_min":0,"x_max":509,"ha":509,"o":"m 478 192 q 479 104 406 40 q 351 -9 241 -9 q 141 -9 88 44 q 43 89 43 164 q 43 220 87 273 q 104 294 154 327 q 160 331 151 335 q 53 378 53 467 q 53 554 123 614 q 176 659 271 659 q 365 659 415 615 q 436 597 449 567 q 461 540 461 520 q 461 462 416 416 q 392 392 344 367 q 332 361 347 356 q 392 341 426 310 q 477 262 478 192 z m 371 497 q 371 536 336 574 q 304 609 227 609 q 185 609 161 582 q 139 549 139 507 q 139 444 195 409 q 216 396 273 385 q 290 382 304 390 q 331 405 341 417 q 371 453 371 497 z m 387 154 q 387 212 351 243 q 312 277 214 309 q 204 312 199 309 q 176 295 154 267 q 125 231 127 192 q 130 125 169 77 q 205 33 286 33 q 331 33 356 60 q 387 93 387 154 z"},"\\":{"x_min":0,"x_max":331,"ha":331,"o":"m 317 -37 q 317 -37 302 -46 q 291 -50 284 -48 q 278 -46 273 -33 q 153 302 13 695 q 8 709 12 714 q 16 718 29 723 q 41 728 48 726 q 53 725 58 710 q 160 431 317 -19 q 321 -31 317 -37 z"},"e":{"x_min":0,"x_max":454,"ha":454,"o":"m 439 77 q 438 74 436 72 q 404 40 351 16 q 295 -9 239 -9 q 148 -9 95 42 q 34 100 28 193 q 25 241 38 292 q 57 365 101 406 q 148 450 213 450 q 265 450 316 431 q 360 415 397 378 q 422 353 434 333 q 438 328 438 318 q 438 312 430 309 q 421 306 367 294 q 312 283 298 281 q 269 276 239 271 q 182 263 165 263 q 163 263 145 263 q 128 262 125 262 q 120 262 121 239 q 125 145 176 86 q 193 66 233 56 q 268 46 303 47 q 358 48 390 65 q 411 76 421 86 q 423 87 426 89 q 428 89 435 82 q 439 78 439 77 z m 325 327 q 325 328 321 340 q 309 361 306 366 q 295 381 274 398 q 244 422 207 422 q 176 422 152 388 q 144 376 135 346 q 126 316 126 298 q 126 288 130 288 q 156 288 200 292 q 215 293 260 303 q 305 313 318 318 q 325 321 325 327 z"},"b":{"x_min":0,"x_max":553,"ha":553,"o":"m 524 217 q 524 109 454 46 q 391 -11 304 -11 q 237 -11 175 17 q 146 30 134 30 q 116 30 109 -22 q 108 -32 101 -32 l 91 -32 q 84 -32 84 -15 q 84 -12 85 165 q 86 342 86 356 q 86 447 87 528 q 88 609 88 604 q 88 688 66 688 l 10 688 q 4 688 4 694 l 4 709 q 4 717 9 717 l 27 717 q 129 717 167 735 q 180 742 186 742 q 191 742 191 727 q 191 726 187 574 q 182 422 182 389 q 182 377 187 382 q 233 419 253 429 q 287 447 331 447 q 418 447 472 383 q 524 321 524 217 z m 437 191 q 437 276 395 333 q 360 381 274 381 q 220 381 186 353 q 182 349 182 342 l 182 167 q 182 101 190 61 q 193 44 205 38 q 239 21 290 21 q 354 21 397 66 q 437 108 437 191 z"},"%":{"x_min":0,"x_max":833,"ha":833,"o":"m 801 175 q 801 121 784 84 q 764 41 713 10 q 678 -11 633 -11 q 580 -11 559 -1 q 515 21 488 68 q 465 108 465 172 q 465 236 490 278 q 515 320 556 341 q 589 358 650 358 q 702 358 728 340 q 768 313 784 271 q 801 228 801 175 z m 557 641 q 438 307 300 -89 q 296 -100 292 -104 q 289 -109 275 -102 q 263 -96 257 -90 q 251 -84 256 -73 q 375 263 515 654 q 516 658 526 671 q 531 671 545 669 q 556 662 556 661 q 566 655 557 641 z m 369 447 q 369 393 352 356 q 332 313 281 282 q 246 261 201 261 q 147 261 127 271 q 83 292 56 340 q 33 380 33 444 q 33 508 58 550 q 83 592 124 613 q 157 630 218 630 q 270 630 296 612 q 335 585 352 543 q 369 500 369 447 z m 725 156 q 725 231 694 275 q 663 319 611 319 q 574 319 560 297 q 542 268 542 203 q 542 136 561 84 q 573 51 599 31 q 619 16 641 16 q 668 16 686 27 q 703 38 716 76 q 725 103 725 156 z m 293 428 q 293 503 262 547 q 231 591 179 591 q 142 591 128 569 q 110 540 110 475 q 110 408 129 356 q 141 323 167 303 q 187 288 209 288 q 236 288 253 299 q 271 310 284 348 q 293 375 293 428 z"},"m":{"x_min":0,"x_max":818,"ha":818,"o":"m 807 6 q 807 0 803 0 l 595 0 q 590 0 590 4 l 590 24 q 590 29 595 29 l 633 29 q 641 29 641 37 q 647 96 647 255 q 647 335 625 361 q 602 386 557 386 q 513 386 469 365 q 477 343 477 283 q 477 250 475 173 q 473 96 473 97 q 473 42 472 56 q 474 29 483 29 l 534 29 q 540 29 540 26 l 540 6 q 540 0 536 0 l 331 0 q 327 0 325 3 l 325 24 q 329 29 330 29 l 367 29 q 375 29 375 37 q 381 96 381 255 q 381 335 357 362 q 334 388 291 388 q 250 388 201 373 q 193 371 193 360 q 193 356 191 244 q 190 131 190 128 q 190 29 206 29 l 255 29 q 259 29 260 24 l 260 4 q 257 0 255 0 l 31 0 q 28 0 27 1 q 26 2 26 6 l 26 25 q 29 29 31 29 l 87 29 q 95 29 95 38 q 95 71 97 196 q 98 320 98 348 q 98 421 82 421 l 25 421 q 19 421 19 427 l 19 446 q 19 450 23 450 l 89 450 q 94 450 118 451 q 142 452 146 452 q 151 452 168 455 q 185 457 188 457 q 195 457 195 446 q 195 443 194 428 q 194 413 194 409 q 194 397 200 397 q 221 410 263 431 q 305 452 340 452 q 404 452 437 418 q 450 405 457 392 q 479 405 526 429 q 573 452 606 452 q 668 452 704 418 q 744 380 744 283 q 744 250 742 173 q 740 96 740 97 q 740 43 739 58 q 741 29 750 29 l 801 29 q 807 29 807 26 z"},"#":{"x_min":0,"x_max":590,"ha":590,"o":"m 567 156 q 565 146 565 139 q 562 133 557 131 q 555 129 549 131 q 542 134 539 134 q 496 148 366 190 l 292 -31 q 292 -37 281 -48 q 271 -46 263 -46 q 257 -42 251 -39 q 250 -31 254 -21 q 254 -14 329 202 q 275 220 174 254 q 169 241 75 -31 q 75 -38 65 -48 q 54 -46 47 -46 q 42 -42 35 -39 q 33 -37 35 -32 q 38 -24 38 -21 q 64 53 138 266 q 34 300 38 300 q 30 300 20 310 q 22 316 22 323 q 26 329 29 335 q 31 337 37 335 q 45 332 48 332 q 49 332 150 299 l 200 441 q 95 473 38 492 q 30 492 20 502 q 22 513 22 519 q 26 524 29 531 q 31 533 37 531 q 45 528 48 528 q 48 528 106 510 q 164 492 212 477 l 294 708 q 294 716 305 725 q 315 723 322 723 q 329 719 332 717 q 331 706 331 698 q 299 605 248 465 q 309 447 402 418 l 500 708 q 500 715 510 725 q 521 723 528 723 q 534 719 540 716 q 542 715 537 698 q 537 698 439 406 q 474 396 549 372 q 557 372 567 362 q 565 352 565 345 l 557 333 q 555 331 549 333 q 542 336 539 336 q 544 336 427 370 q 403 295 377 223 q 541 166 549 166 q 557 166 567 156 z m 390 382 q 339 398 237 429 q 220 381 186 286 l 340 235 q 366 307 390 382 z"},",":{"x_min":0,"x_max":235,"ha":235,"o":"m 208 -21 q 204 -81 132 -136 q 125 -141 113 -147 q 94 -149 90 -137 q 88 -130 104 -116 q 134 -89 137 -43 q 139 -18 127 -11 q 123 -9 100 -9 q 82 -9 65 6 q 49 21 49 42 q 49 58 59 69 q 77 89 122 86 q 157 83 183 53 q 211 20 208 -21 z"},"n":{"x_min":0,"x_max":562,"ha":562,"o":"m 541 6 q 541 0 537 0 l 329 0 q 324 0 324 4 l 324 24 q 324 29 329 29 l 366 29 q 372 29 374 37 q 380 96 380 255 q 380 335 357 361 q 335 386 291 386 q 248 386 203 371 q 195 368 195 358 q 192 337 192 128 q 192 29 208 29 l 257 29 q 262 29 262 24 l 262 4 q 262 0 257 0 l 31 0 q 28 0 27 1 q 26 2 26 6 l 26 25 q 26 29 31 29 l 87 29 q 95 29 95 38 q 98 257 98 348 q 98 421 82 421 l 25 421 q 19 421 19 427 l 19 446 q 19 450 23 450 l 89 450 q 120 450 139 452 q 187 457 190 457 q 197 457 197 446 q 197 443 196 428 q 196 413 196 409 q 196 393 202 397 q 226 413 262 431 q 304 452 340 452 q 404 452 438 418 q 478 378 478 283 q 478 250 476 173 q 474 96 474 97 q 474 41 473 56 q 475 29 484 29 l 535 29 q 541 29 541 26 z"},"h":{"x_min":0,"x_max":560,"ha":560,"o":"m 549 6 q 549 0 545 0 l 335 0 q 330 0 330 4 l 330 24 q 330 29 335 29 l 366 29 q 372 29 374 37 q 380 96 380 255 q 380 339 360 365 q 344 386 291 386 q 247 386 203 371 q 195 368 195 358 q 192 337 192 128 q 192 29 208 29 l 262 29 q 267 29 267 24 l 267 4 q 267 0 262 0 l 28 0 q 25 0 24 1 q 23 2 23 6 l 23 25 q 23 29 28 29 l 87 29 q 95 29 95 38 l 97 602 q 97 646 96 654 q 92 688 73 688 l 19 688 q 17 688 15 689 q 14 690 14 694 l 14 710 q 14 717 19 717 l 42 717 q 103 717 146 732 q 189 747 195 747 q 201 747 201 733 q 201 729 198 571 q 196 413 196 409 q 196 393 202 397 q 223 411 263 431 q 305 452 340 452 q 404 452 438 418 q 478 378 478 283 q 478 250 476 173 q 474 96 474 97 q 474 29 484 29 l 543 29 q 549 29 549 26 z"},"z":{"x_min":0,"x_max":490,"ha":490,"o":"m 469 80 q 469 73 457 37 q 452 22 446 8 q 442 0 433 0 l 23 0 q 9 0 9 10 q 9 17 18 27 q 96 97 190 183 q 278 270 324 327 q 347 355 347 365 q 347 375 330 375 l 211 375 q 178 375 124 371 q 103 370 92 368 q 72 364 61 357 q 52 351 42 351 q 32 351 32 359 q 32 365 41 398 q 46 418 53 444 q 55 450 65 450 q 66 450 84 449 q 101 448 104 448 q 108 448 250 445 q 392 441 398 441 q 406 441 427 442 q 448 444 449 444 q 459 444 459 436 q 459 429 452 420 q 426 387 390 340 q 334 272 233 171 q 233 171 200 142 q 168 113 151 96 q 138 83 139 78 q 141 71 153 70 l 287 70 q 362 70 408 75 q 423 77 441 83 q 460 89 462 89 q 469 89 469 80 z"},"B":{"x_min":0,"x_max":569,"ha":569,"o":"m 538 173 q 538 97 480 48 q 416 -6 302 -6 q 290 -6 218 -3 q 146 0 114 0 l 35 0 q 31 0 31 4 l 31 27 q 31 32 35 32 l 107 32 q 119 32 119 49 q 119 55 117 195 q 115 335 115 349 l 115 540 q 111 630 95 630 l 17 630 q 13 630 13 635 l 13 658 q 13 662 18 662 l 182 662 q 188 662 236 664 q 284 665 293 665 q 342 665 342 665 q 387 663 409 654 q 445 639 466 618 q 507 577 507 520 q 507 463 465 415 q 432 376 385 352 q 380 350 390 347 q 446 331 490 293 q 538 252 538 173 z m 411 481 q 411 544 365 590 q 325 629 249 632 q 235 632 226 631 q 219 630 218 619 q 217 609 217 374 q 217 368 220 368 q 219 368 229 369 q 240 369 262 369 q 298 369 340 363 q 349 362 356 367 q 380 386 392 407 q 411 442 411 481 z m 430 160 q 430 235 382 280 q 326 332 241 332 q 229 332 223 329 q 221 328 221 319 q 221 146 222 110 q 224 42 233 37 q 253 26 292 26 q 352 26 387 56 q 430 93 430 160 z"},"K":{"x_min":0,"x_max":697,"ha":697,"o":"m 695 6 q 695 2 693 1 q 692 0 690 0 l 531 0 q 521 0 519 5 q 519 5 428 114 q 365 190 315 237 q 292 260 257 291 q 250 296 244 292 q 231 282 223 275 q 220 268 220 265 q 220 264 221 204 q 221 145 221 133 q 221 31 235 31 l 306 31 q 310 31 310 25 l 310 5 q 310 0 305 0 l 57 0 q 49 0 49 4 l 49 27 q 49 32 56 32 l 106 32 q 114 32 114 42 q 114 44 113 186 q 113 329 113 337 q 113 345 112 438 q 112 531 112 534 q 112 630 95 630 l 35 630 q 30 630 30 635 l 30 658 q 30 662 35 662 l 285 662 q 289 662 289 658 l 289 638 q 289 632 285 632 l 227 632 q 222 632 222 625 q 222 623 221 482 q 219 342 219 338 q 219 325 224 327 q 309 401 398 478 q 428 501 482 562 q 523 608 523 623 q 523 632 511 632 l 459 632 q 455 632 455 637 l 455 658 q 455 662 460 662 l 674 662 q 681 662 681 658 l 681 636 q 681 630 676 630 l 637 630 q 623 630 612 618 q 543 555 464 484 q 406 437 333 364 q 325 354 329 351 q 355 331 400 289 q 479 214 549 128 q 593 74 612 62 q 641 32 660 32 l 690 32 q 695 32 695 27 z"},"R":{"x_min":0,"x_max":709,"ha":709,"o":"m 701 6 q 701 0 697 0 l 523 0 q 511 0 504 6 q 478 28 377 159 q 331 219 298 290 q 294 298 290 298 q 263 300 223 304 q 215 305 215 297 q 215 306 215 251 q 216 197 216 139 q 216 32 239 32 l 319 32 q 324 32 324 27 l 324 5 q 324 0 320 0 l 48 0 q 41 0 41 5 l 41 26 q 41 32 47 32 l 104 32 q 113 32 113 47 l 113 306 q 113 496 113 496 q 112 628 95 628 l 39 628 q 34 628 34 633 l 34 655 q 34 660 38 660 l 192 664 q 269 666 308 666 q 350 666 378 662 q 450 652 497 611 q 551 564 551 496 q 551 419 498 366 q 468 336 404 313 q 400 311 401 307 q 444 230 502 168 q 547 120 562 104 q 595 71 619 55 q 652 32 692 32 q 701 32 701 26 z m 444 470 q 444 535 401 576 q 344 630 235 630 q 218 630 216 620 q 216 486 214 451 q 214 451 214 347 q 214 339 221 338 q 240 335 276 336 q 325 337 348 344 q 444 371 444 470 z"},"T":{"x_min":0,"x_max":648,"ha":648,"o":"m 638 657 q 635 634 620 578 q 618 571 608 571 q 597 571 593 579 q 583 600 560 606 q 544 610 475 616 q 410 622 386 622 q 379 622 379 615 q 373 489 373 165 q 373 32 396 32 l 474 32 q 477 32 477 28 l 477 5 q 477 0 474 0 l 192 0 q 187 0 187 5 l 187 27 q 187 32 192 32 l 263 32 q 272 32 272 43 q 272 44 271 93 q 270 141 270 151 q 270 159 272 318 q 275 476 275 483 q 275 623 259 623 q 146 623 77 603 q 61 598 45 582 q 30 566 24 565 q 9 563 5 569 q 1 573 8 585 q 21 628 33 663 q 35 669 44 668 q 52 667 165 662 q 285 657 327 657 q 469 657 593 661 q 607 662 620 663 q 631 665 631 665 q 638 665 638 657 z"},"P":{"x_min":0,"x_max":595,"ha":595,"o":"m 565 465 q 565 390 510 337 q 449 278 337 278 q 283 278 234 291 q 230 292 230 285 l 230 143 q 230 32 251 32 l 328 32 q 334 32 334 26 l 334 6 q 334 0 330 0 l 40 0 q 36 0 36 4 l 36 26 q 36 32 41 32 l 112 32 q 120 32 120 44 l 120 534 q 120 623 108 623 l 51 623 q 44 623 44 627 l 44 650 q 44 655 50 655 l 178 660 q 204 661 309 661 q 367 661 406 655 q 464 646 514 599 q 565 550 565 465 z m 462 458 q 462 517 414 571 q 366 625 259 625 q 242 625 239 623 q 235 621 234 613 q 231 583 231 467 q 231 462 230 400 q 230 337 230 334 q 230 327 237 325 q 270 314 314 314 q 389 314 423 348 q 462 387 462 458 z"},"|":{"x_min":0,"x_max":295,"ha":295,"o":"m 172 -148 q 172 -159 164 -164 q 150 -173 134 -164 q 123 -158 123 -148 q 125 -47 126 294 q 126 656 123 752 q 123 762 134 768 q 150 777 164 768 q 172 763 172 752 z"},"t":{"x_min":0,"x_max":380,"ha":380,"o":"m 363 63 q 365 59 357 52 q 335 34 298 19 q 241 -4 189 -4 q 134 -4 104 24 q 73 53 73 100 q 73 107 75 206 q 77 306 77 311 q 77 376 75 387 q 75 394 64 405 q 47 413 25 423 q 17 427 17 434 q 17 442 25 446 q 36 452 87 489 q 138 526 144 533 q 150 539 160 539 q 173 539 171 526 q 168 500 165 464 q 164 449 170 448 q 240 441 330 441 q 339 441 338 431 q 335 418 330 399 q 328 392 321 392 q 315 392 244 396 q 172 401 170 401 q 164 401 164 393 l 164 141 q 164 81 183 65 q 199 53 248 53 q 294 53 331 68 q 353 77 353 77 q 356 77 363 63 z"},"M":{"x_min":0,"x_max":952,"ha":952,"o":"m 910 5 q 910 0 904 0 l 670 0 q 663 0 663 5 l 663 27 q 663 32 668 32 l 712 32 q 724 32 724 44 l 724 292 q 724 433 720 498 q 719 512 715 512 q 712 512 708 503 q 683 453 520 102 q 485 26 472 -6 q 469 -14 457 -14 q 445 -14 441 -7 q 319 226 295 279 q 255 358 190 495 q 187 503 183 503 q 178 503 177 493 q 170 388 170 222 l 170 118 q 170 32 194 32 l 243 32 q 248 32 248 28 l 248 5 q 248 0 245 0 l 59 0 q 53 0 53 4 l 53 25 q 53 32 58 32 l 108 32 q 121 32 121 54 q 121 95 129 327 q 132 386 137 530 q 138 602 86 625 q 73 631 43 633 q 39 633 39 637 l 39 658 q 39 662 43 662 l 211 662 q 219 662 223 655 q 250 605 312 478 q 325 451 397 312 q 473 165 482 151 q 490 138 495 147 q 549 264 611 396 q 670 522 733 653 q 739 662 749 662 l 883 662 q 889 662 889 658 l 889 635 q 889 630 885 630 l 848 630 q 832 630 829 598 q 826 565 826 364 q 826 208 829 141 q 834 32 860 32 l 905 32 q 910 32 910 27 z"},"g":{"x_min":0,"x_max":498,"ha":498,"o":"m 488 -93 q 488 -152 429 -199 q 358 -254 209 -254 q 106 -254 56 -219 q 13 -188 13 -139 q 13 -94 56 -55 q 75 -37 125 -19 q 137 -12 124 -10 q 57 6 57 42 q 57 84 125 131 q 131 135 115 144 q 83 162 68 176 q 25 216 25 283 q 25 355 76 404 q 127 453 224 453 q 277 453 323 446 q 355 441 406 441 q 437 441 461 449 q 482 456 481 456 q 486 456 486 445 q 486 418 467 399 q 461 393 441 393 q 436 393 391 398 q 376 399 374 396 q 372 393 378 388 q 417 351 417 293 q 417 224 360 174 q 302 123 214 123 q 183 123 170 128 q 163 130 159 125 q 122 104 121 78 q 119 54 159 50 q 191 46 222 46 q 313 46 362 36 q 414 24 450 -4 q 488 -35 488 -93 z m 322 267 q 322 337 287 376 q 248 419 197 419 q 150 419 134 394 q 113 362 113 316 q 113 255 134 215 q 167 153 232 153 q 277 153 296 180 q 322 218 322 267 z m 414 -118 q 414 -104 403 -86 q 388 -62 362 -53 q 312 -36 218 -36 q 146 -36 111 -65 q 78 -93 76 -135 q 75 -173 112 -198 q 150 -223 235 -223 q 321 -223 367 -192 q 414 -161 414 -118 z"},"j":{"x_min":0,"x_max":244,"ha":244,"o":"m 180 615 q 180 585 152 562 q 127 542 106 542 q 66 542 66 580 q 66 601 85 624 q 109 651 143 651 q 180 651 180 615 z m 183 429 q 172 99 172 -5 q 172 -103 150 -153 q 133 -193 90 -226 q 53 -253 -8 -253 q -42 -253 -64 -240 q -85 -227 -84 -207 q -83 -169 -33 -172 q -12 -174 10 -195 q 27 -212 38 -212 q 62 -212 69 -169 q 77 -123 80 -49 q 82 -7 82 321 q 82 414 59 414 l 3 414 q -5 414 -5 419 l -5 441 q -5 446 0 446 l 58 446 q 92 446 119 449 q 164 454 168 454 q 175 454 178 452 q 184 448 183 429 z"},"i":{"x_min":0,"x_max":285,"ha":285,"o":"m 195 618 q 195 588 167 565 q 142 545 121 545 q 81 545 81 583 q 81 604 101 627 q 124 654 158 654 q 195 654 195 618 z m 272 4 q 272 0 267 0 l 26 0 q 23 0 22 1 q 21 2 21 6 l 21 25 q 21 29 26 29 l 87 29 q 95 29 95 38 q 98 257 98 342 q 98 417 78 417 l 25 417 q 19 417 19 423 l 19 446 q 19 450 23 450 l 89 450 q 120 450 139 452 q 187 457 190 457 q 197 457 197 446 q 197 443 196 403 q 195 362 195 358 q 190 323 190 127 q 190 29 208 29 l 267 29 q 272 29 272 24 z"},"y":{"x_min":0,"x_max":503,"ha":503,"o":"m 495 421 q 495 414 490 414 l 475 414 q 466 414 461 405 q 439 370 393 241 q 369 174 354 140 q 325 70 272 -35 q 231 -119 169 -232 q 165 -240 155 -242 q 128 -244 87 -247 q 73 -250 45 -254 q 41 -256 32 -241 q 29 -236 41 -231 q 91 -209 142 -150 q 213 -64 238 -8 q 242 -1 235 11 q 194 87 130 243 q 95 329 67 382 q 50 414 37 414 l 17 414 q 10 414 10 417 l 10 439 q 10 444 17 444 l 223 444 q 228 444 228 439 l 228 420 q 228 416 223 416 l 177 416 q 170 416 168 406 q 167 399 170 390 q 188 342 222 254 q 246 195 285 107 q 291 95 297 108 q 321 154 347 239 q 371 316 381 382 q 386 416 362 416 l 318 416 q 310 416 310 419 l 310 439 q 310 444 316 444 l 489 444 q 493 444 494 442 q 495 441 495 439 z"},"@":{"x_min":0,"x_max":710,"ha":710,"o":"m 665 369 q 665 293 624 236 q 583 178 522 166 q 482 158 443 168 q 407 177 387 223 q 387 227 385 228 q 383 228 381 225 q 365 205 344 193 q 306 171 278 171 q 250 171 240 181 q 212 208 212 229 q 212 232 213 236 q 242 392 260 412 q 306 465 327 471 q 351 478 376 481 q 409 485 415 486 q 420 487 421 495 q 421 500 442 502 q 461 505 473 504 q 481 504 489 503 q 498 503 497 498 q 477 408 453 294 q 450 279 450 267 q 450 216 508 190 q 553 201 586 248 q 622 298 622 361 q 622 444 585 506 q 545 576 472 599 q 426 613 353 613 q 254 613 205 549 q 125 445 125 332 q 125 190 184 111 q 250 23 380 23 q 445 23 523 71 q 533 71 531 70 q 529 70 529 69 q 529 69 538 63 q 546 57 548 52 q 551 46 542 40 q 470 -13 375 -13 q 228 -13 136 89 q 47 187 47 333 q 47 474 145 571 q 240 667 374 667 q 485 667 566 592 q 665 501 665 369 z m 410 443 q 410 448 406 448 q 403 448 364 438 q 337 432 319 379 q 309 349 292 266 q 287 244 296 235 q 303 229 326 229 q 342 229 352 236 q 359 243 367 250 q 376 256 384 286 q 384 288 410 443 z"},".":{"x_min":0,"x_max":225,"ha":225,"o":"m 168 49 q 168 28 151 14 q 134 0 111 0 q 53 0 53 49 q 53 106 121 106 q 143 106 156 88 q 168 72 168 49 z"},"p":{"x_min":0,"x_max":567,"ha":567,"o":"m 534 222 q 534 120 467 57 q 403 -3 293 -3 q 233 -3 196 18 q 188 22 188 14 q 188 13 188 -42 q 189 -97 189 -109 q 189 -225 214 -225 l 289 -225 q 293 -225 293 -229 l 293 -248 q 293 -254 290 -254 l 28 -254 q 21 -254 21 -250 l 21 -230 q 21 -225 28 -225 l 87 -225 q 95 -225 95 -217 q 95 277 93 322 q 89 420 77 420 l 13 420 q 6 420 6 425 l 6 444 q 6 449 10 449 l 60 449 q 104 449 130 452 q 172 457 182 457 q 190 457 190 445 q 190 441 189 418 q 188 394 188 390 q 188 375 200 387 q 226 412 264 433 q 302 453 343 453 q 417 453 472 400 q 534 340 534 222 z m 447 201 q 447 236 433 277 q 419 316 401 337 q 361 383 297 383 q 251 383 225 371 q 195 357 190 347 q 188 341 188 335 l 188 66 q 188 55 192 52 q 233 25 304 25 q 379 25 417 80 q 447 123 447 201 z"},"X":{"x_min":0,"x_max":693,"ha":693,"o":"m 683 6 q 683 2 682 1 q 680 0 678 0 l 447 0 q 440 0 440 5 l 440 27 q 440 30 441 31 q 442 32 446 32 l 492 32 q 501 32 496 44 q 454 106 406 179 q 356 255 336 282 q 333 285 323 273 q 292 242 273 222 q 205 150 178 108 q 166 88 162 82 q 155 67 154 53 q 153 32 173 32 l 227 32 q 233 32 233 27 l 233 4 q 233 0 227 0 l 18 0 q 11 0 11 5 l 11 25 q 11 32 18 32 l 54 32 q 62 32 74 51 q 104 101 218 217 q 242 240 309 307 q 314 312 308 322 q 261 396 199 476 q 165 527 99 614 q 85 630 67 630 l 51 630 q 45 630 45 634 l 45 657 q 45 662 50 662 l 294 662 q 301 662 301 658 l 301 637 q 301 630 297 630 l 247 630 q 233 630 233 620 q 233 608 245 591 l 303 507 q 328 469 378 392 q 384 382 392 390 q 448 457 462 477 q 500 532 517 569 q 528 593 528 614 q 528 630 512 630 l 454 630 q 448 630 448 636 l 448 657 q 448 660 449 661 q 450 662 454 662 l 658 662 q 664 662 664 658 l 664 635 q 664 630 660 630 l 623 630 q 612 630 606 619 q 583 574 514 483 q 459 410 413 362 q 406 355 409 351 q 482 255 517 199 q 582 96 619 55 q 640 32 660 32 l 677 32 q 683 32 683 26 z"},"*":{"x_min":0,"x_max":506,"ha":506,"o":"m 452 544 q 452 542 441 503 q 437 483 429 457 q 428 454 419 454 q 417 454 382 459 q 348 465 288 474 q 306 435 330 401 q 343 380 370 353 q 382 349 382 343 q 382 340 379 340 q 371 337 328 332 q 307 330 279 326 q 274 325 271 333 q 265 349 261 365 q 254 398 243 454 q 216 425 186 394 q 163 371 155 344 q 153 336 148 327 q 146 324 142 329 q 137 336 123 358 q 108 379 90 409 q 86 413 94 418 q 100 420 120 432 q 149 448 198 478 q 172 475 129 472 q 91 471 65 455 q 53 448 51 449 q 48 449 48 451 q 52 462 57 487 q 62 519 71 541 q 71 543 79 543 q 91 543 117 540 q 151 533 213 524 q 210 531 173 596 q 170 604 153 624 q 136 644 130 646 q 123 650 119 655 q 114 660 120 660 q 135 661 161 662 q 167 663 194 667 q 220 672 224 672 q 228 673 230 664 q 233 650 238 631 q 256 563 264 534 q 283 556 316 597 q 333 613 348 657 q 350 666 353 670 l 355 670 q 366 655 383 632 q 395 615 415 590 q 417 587 409 583 q 394 575 378 561 q 357 552 315 522 q 338 522 375 524 q 417 528 434 541 q 443 548 449 548 q 452 548 452 544 z"},"Y":{"x_min":0,"x_max":625,"ha":625,"o":"m 618 634 q 618 630 615 630 l 584 630 q 570 630 556 607 q 520 551 468 470 q 425 400 377 322 q 372 314 372 306 q 372 305 371 218 q 370 130 370 123 q 370 32 390 32 l 462 32 q 464 32 466 31 q 467 30 467 26 l 467 4 q 467 0 463 0 l 187 0 q 179 0 179 6 l 179 25 q 179 32 185 32 l 254 32 q 263 32 263 44 q 263 47 263 172 q 262 296 262 301 q 262 316 257 322 q 235 349 168 461 q 126 531 67 609 q 51 630 25 630 l 15 630 q 11 630 10 631 q 9 633 9 635 l 9 655 q 9 662 15 662 l 245 662 q 253 662 253 656 l 253 635 q 253 630 248 630 l 203 630 q 189 630 189 620 q 189 615 195 600 q 227 550 270 480 q 299 430 341 363 q 347 355 352 362 q 418 450 462 538 q 487 588 487 618 q 487 630 473 630 l 432 630 q 428 630 428 634 l 428 657 q 428 662 432 662 l 614 662 q 618 662 618 658 z"},"c":{"x_min":0,"x_max":458,"ha":458,"o":"m 438 80 q 438 73 413 54 q 331 -7 248 -7 q 182 -7 147 11 q 88 41 57 94 q 29 141 29 221 q 29 267 44 317 q 60 366 108 410 q 157 454 248 454 q 332 454 385 401 q 418 368 418 342 q 418 314 397 314 q 361 314 336 341 q 315 363 305 399 q 299 418 279 423 q 260 427 249 427 q 218 427 207 423 q 176 412 156 382 q 125 335 125 253 q 125 160 175 98 q 213 51 297 51 q 363 51 409 81 q 415 84 424 91 q 430 97 434 89 q 438 85 438 80 z"},"!":{"x_min":0,"x_max":220,"ha":220,"o":"m 166 478 q 166 404 146 285 q 130 190 118 152 q 113 136 100 139 q 78 144 79 157 q 79 162 80 175 q 83 209 83 274 q 83 410 53 587 q 46 628 46 631 q 46 643 59 643 q 69 643 99 631 q 120 623 147 612 q 161 606 162 595 q 166 567 166 478 z m 158 47 q 158 25 142 9 q 125 -8 98 -8 q 44 -8 44 43 q 44 71 65 86 q 82 97 102 97 q 158 97 158 47 z"},"/":{"x_min":0,"x_max":331,"ha":331,"o":"m 319 714 q 323 709 318 695 q 200 362 58 -33 q 53 -46 47 -48 q 40 -50 28 -46 q 22 -43 13 -37 q 9 -31 13 -19 q 170 431 272 710 q 277 725 282 726 q 290 728 301 723 q 316 717 319 714 z"},"[":{"x_min":0,"x_max":387,"ha":387,"o":"m 373 -248 q 373 -253 368 -253 l 127 -253 q 113 -253 113 -239 l 113 714 q 113 725 122 725 l 366 725 q 373 725 373 721 l 373 705 q 373 699 367 699 l 241 699 q 224 699 208 701 q 203 702 201 699 q 199 696 200 691 q 204 679 204 658 l 204 -164 q 204 -167 202 -216 q 202 -225 204 -227 q 206 -230 211 -229 q 227 -228 234 -228 l 367 -228 q 373 -228 373 -231 z"},"6":{"x_min":0,"x_max":514,"ha":514,"o":"m 483 219 q 483 139 457 90 q 427 34 375 11 q 332 -8 259 -8 q 195 -8 143 22 q 101 46 77 83 q 31 153 31 263 q 31 370 82 467 q 136 569 226 618 q 305 661 410 661 q 475 661 475 645 q 475 634 472 631 q 470 629 458 629 q 395 629 349 614 q 277 590 233 549 q 163 484 148 427 q 145 416 147 413 q 149 410 157 414 q 172 422 197 433 q 241 452 290 452 q 335 452 373 433 q 410 415 437 380 q 483 321 483 219 z m 405 165 q 405 248 377 302 q 349 356 301 372 q 273 381 218 381 q 174 381 130 356 q 124 352 124 341 q 122 319 122 281 q 122 167 166 109 q 224 32 307 32 q 340 32 358 46 q 405 83 405 165 z"},"r":{"x_min":0,"x_max":389,"ha":389,"o":"m 381 398 q 375 358 363 334 q 360 329 352 322 q 345 321 340 327 q 322 353 314 358 q 291 374 265 374 q 217 374 190 353 q 185 349 185 340 q 185 337 185 228 q 184 118 184 112 q 184 30 201 29 l 285 26 q 291 26 291 19 l 291 2 q 291 -3 287 -3 l 29 0 q 22 0 22 5 l 22 22 q 22 29 28 29 l 80 29 q 90 29 90 38 l 90 352 q 90 419 73 419 l 20 419 q 15 419 15 424 l 15 444 q 15 449 20 449 l 90 449 q 130 449 150 453 q 171 460 180 460 q 187 460 187 447 q 187 443 186 423 q 185 402 185 399 q 185 385 192 391 q 227 419 233 424 q 272 450 307 450 q 354 450 379 412 q 383 405 381 398 z"},"2":{"x_min":0,"x_max":523,"ha":523,"o":"m 498 86 q 498 80 493 69 q 476 31 467 6 q 465 0 456 0 l 50 0 q 41 0 41 15 q 41 24 59 36 q 202 129 271 217 q 322 282 340 336 q 356 381 356 447 q 356 492 330 532 q 316 553 296 565 q 266 583 207 585 q 123 588 74 536 q 65 527 62 527 q 50 527 45 535 q 44 538 44 540 q 44 555 67 583 q 92 613 138 636 q 191 656 281 656 q 358 656 412 609 q 461 566 461 484 q 461 433 436 376 q 395 282 320 202 q 264 142 197 89 q 190 84 190 81 q 190 77 205 77 l 309 77 q 412 77 467 86 q 473 87 480 89 q 487 92 488 92 q 498 92 498 86 z"},"{":{"x_min":0,"x_max":404,"ha":404,"o":"m 392 -249 q 392 -253 385 -253 l 281 -253 q 198 -253 153 -194 q 113 -141 113 -60 q 113 -9 131 58 q 149 125 149 173 q 149 197 123 215 q 99 232 75 232 q 54 232 54 248 q 54 264 75 264 q 100 264 123 277 q 149 292 149 315 q 149 362 131 422 q 113 481 113 532 q 113 609 160 666 q 208 725 281 725 l 385 725 q 392 725 392 721 l 392 705 q 392 699 386 699 l 322 699 q 262 699 230 639 q 202 587 202 507 q 202 458 215 402 q 227 345 227 317 q 227 265 151 247 q 173 235 195 223 q 227 201 227 171 q 227 143 215 79 q 202 14 202 -35 q 202 -117 228 -167 q 258 -227 322 -227 l 386 -227 q 392 -227 392 -233 z"},"9":{"x_min":0,"x_max":526,"ha":526,"o":"m 490 406 q 490 286 433 180 q 375 72 286 29 q 207 -9 111 -8 q 42 -7 47 13 q 49 22 55 24 q 60 26 85 26 q 152 26 204 50 q 270 81 314 132 q 353 177 372 222 q 376 231 375 233 q 375 236 368 232 q 345 218 330 212 q 285 193 222 195 q 152 197 99 250 q 35 314 35 426 q 35 548 111 612 q 166 658 256 658 q 362 658 423 597 q 490 530 490 406 z m 397 372 q 397 476 340 549 q 289 615 210 615 q 180 615 165 602 q 123 564 120 479 q 118 388 155 333 q 187 288 240 272 q 265 265 307 267 q 360 270 386 292 q 390 295 395 308 q 397 319 397 372 z"}," ":{"x_min":0,"x_max":225,"ha":225,"o":""},"I":{"x_min":0,"x_max":355,"ha":355,"o":"m 316 4 q 316 0 312 0 l 62 0 q 55 0 55 5 l 55 26 q 55 32 61 32 l 117 32 q 124 32 124 46 q 124 51 124 291 q 123 532 123 538 q 123 630 105 630 l 53 630 q 46 630 46 635 l 46 658 q 46 662 51 662 l 302 662 q 306 662 306 658 l 306 634 q 306 630 301 630 l 242 630 q 233 630 233 623 q 233 620 232 403 q 232 186 232 171 q 232 102 233 90 q 236 32 253 32 l 311 32 q 316 32 316 28 z"},"H":{"x_min":0,"x_max":781,"ha":781,"o":"m 756 6 q 756 0 752 0 l 456 0 q 450 0 450 5 l 450 27 q 450 32 458 32 l 532 32 q 542 32 543 37 q 545 42 546 68 q 547 121 547 329 q 547 338 538 338 l 239 338 q 230 338 230 327 q 230 171 231 135 q 234 32 254 32 l 340 32 q 344 32 344 26 l 344 5 q 344 0 340 0 l 44 0 q 40 0 39 1 q 38 3 38 5 l 38 26 q 38 32 44 32 l 108 32 q 120 32 123 37 q 125 42 125 68 q 125 76 124 198 q 123 320 123 333 q 123 347 122 439 q 121 531 121 537 q 121 630 104 630 l 32 630 q 25 630 25 635 l 25 657 q 25 662 32 662 l 323 662 q 330 662 330 655 l 330 635 q 330 630 323 630 l 247 630 q 231 630 231 617 q 231 612 230 505 q 230 398 230 390 q 230 379 238 379 l 537 379 q 546 379 546 388 q 546 392 545 465 q 545 538 545 545 q 545 630 525 630 l 446 630 q 441 630 441 636 l 441 657 q 441 662 448 662 l 742 662 q 748 662 748 655 l 748 636 q 748 630 742 630 l 674 630 q 659 630 656 628 q 654 625 654 612 q 654 612 654 354 q 654 156 655 125 q 658 32 675 32 l 750 32 q 756 32 756 26 z"},"4":{"x_min":0,"x_max":558,"ha":558,"o":"m 522 287 q 516 272 511 263 q 502 242 490 214 q 487 208 481 208 q 437 212 420 212 q 412 212 412 204 q 412 201 414 119 q 416 37 416 29 q 416 12 409 9 q 397 4 376 -3 q 321 -16 329 -16 q 308 -16 305 -4 q 304 1 310 98 q 315 199 315 199 q 315 209 305 209 l 32 209 q 14 209 14 222 q 14 229 20 237 q 70 296 200 453 q 280 552 383 672 q 393 681 410 681 q 430 681 430 667 q 430 664 422 482 q 414 299 414 294 q 414 284 421 285 q 426 285 469 289 q 513 293 515 293 q 524 293 522 287 z m 328 527 q 328 541 315 525 q 312 522 250 447 q 177 359 124 298 q 114 287 126 287 l 310 287 q 322 287 322 297 q 322 303 325 414 q 328 525 328 527 z"},"~":{"x_min":0,"x_max":291,"ha":291,"o":"m 286 252 q 289 242 281 231 q 253 191 193 191 q 164 191 131 208 q 81 234 59 234 q 46 234 35 222 q 23 212 19 209 q 9 206 4 223 q 1 229 9 243 q 38 283 97 283 q 122 283 157 267 q 217 240 231 240 q 245 240 255 252 q 271 266 272 266 q 278 266 286 252 z"},"D":{"x_min":0,"x_max":732,"ha":732,"o":"m 692 337 q 692 135 543 44 q 489 11 420 1 q 379 -5 296 -5 q 258 -5 199 -2 q 140 0 101 0 l 44 0 q 40 0 39 1 q 38 3 38 5 l 38 27 q 38 32 44 32 l 116 32 q 124 32 124 47 q 124 54 125 173 q 125 291 125 302 q 125 313 124 417 q 123 520 123 528 q 123 630 104 630 l 30 630 q 25 630 25 635 l 25 657 q 25 660 26 661 q 27 662 31 662 l 356 662 q 426 662 486 643 q 546 625 601 575 q 692 493 692 337 z m 586 279 q 586 352 572 401 q 556 457 514 512 q 470 571 401 601 q 335 630 274 630 q 253 630 239 627 q 228 625 228 608 q 228 601 228 489 q 227 377 227 362 l 227 167 q 227 41 243 37 q 275 30 366 30 q 468 30 517 80 q 586 150 586 279 z"},"^":{"x_min":0,"x_max":380,"ha":380,"o":"m 345 510 q 343 505 338 494 q 336 493 333 491 q 330 489 329 489 q 324 494 315 502 q 268 543 188 622 l 183 623 l 183 629 l 182 629 q 162 605 117 563 q 64 517 51 502 q 45 497 35 489 q 32 491 26 494 q 22 500 21 508 q 21 511 29 528 q 78 599 156 709 q 160 714 169 722 q 176 718 184 714 q 185 715 186 718 q 191 723 196 722 q 202 720 210 709 q 257 640 337 528 q 345 512 345 510 z"},"0":{"x_min":0,"x_max":537,"ha":537,"o":"m 498 331 q 498 265 492 232 q 485 190 461 138 q 425 61 372 23 q 331 -6 273 -6 q 200 -6 142 38 q 100 70 72 133 q 39 207 39 312 q 39 467 99 568 q 125 612 175 638 q 220 661 273 661 q 363 661 433 576 q 498 497 498 331 z m 397 283 q 397 393 374 468 q 350 547 325 574 q 294 608 232 609 q 199 609 178 578 q 155 543 146 489 q 138 439 138 387 q 138 279 161 195 q 193 79 226 60 q 257 42 296 41 q 332 40 354 70 q 374 97 386 164 q 397 223 397 283 z"},"F":{"x_min":0,"x_max":589,"ha":589,"o":"m 567 656 q 567 650 555 612 q 552 601 542 571 q 540 563 535 563 q 529 563 525 570 q 521 577 510 591 q 487 610 425 619 q 344 630 233 630 q 227 630 227 625 q 227 580 224 481 q 221 388 221 388 q 221 375 231 375 l 460 375 q 468 375 469 380 q 469 380 478 443 q 479 449 486 449 l 505 449 q 510 449 510 442 q 510 440 508 399 q 506 357 506 351 q 506 344 506 299 q 507 254 507 251 q 507 238 501 238 l 481 238 q 478 238 476 244 q 476 247 473 286 q 469 325 469 327 q 469 332 461 333 q 426 338 232 338 q 224 338 224 331 q 224 331 224 157 q 224 32 251 32 l 329 32 q 333 32 333 28 l 333 6 q 333 0 328 0 l 50 0 q 45 0 45 5 l 45 25 q 45 32 50 32 l 113 32 q 121 32 122 41 q 123 49 123 357 l 123 524 q 123 630 105 630 l 40 630 q 34 630 34 634 l 34 657 q 34 662 39 662 l 560 662 q 567 662 567 656 z"},"`":{"x_min":0,"x_max":292,"ha":292,"o":"m 261 496 q 251 489 230 499 q 195 515 68 581 q 53 588 46 596 q 45 597 47 599 q 48 601 51 601 q 102 601 126 604 q 134 605 142 599 q 188 564 251 518 q 259 512 262 504 q 264 498 261 496 z"},"k":{"x_min":0,"x_max":568,"ha":568,"o":"m 562 6 q 562 0 559 0 l 413 0 q 408 0 402 6 q 398 9 359 56 q 320 102 317 106 q 287 144 252 186 q 245 195 240 192 q 223 179 195 161 q 188 157 188 146 q 188 29 207 29 l 271 29 q 277 29 277 25 l 277 6 q 277 0 273 0 l 26 0 q 20 0 20 5 l 20 23 q 20 29 25 29 l 86 29 q 94 29 94 36 l 94 567 q 94 688 74 688 l 18 688 q 12 688 12 692 l 12 712 q 12 715 13 716 q 14 717 18 717 l 59 717 q 113 717 145 727 q 187 740 184 740 q 193 740 193 724 q 193 723 190 466 q 188 210 188 206 q 188 192 196 196 q 220 210 275 256 q 340 310 380 355 q 406 384 404 400 q 402 415 382 415 l 347 415 q 342 415 342 420 l 342 439 q 342 444 347 444 l 379 444 q 434 444 474 447 q 481 448 493 449 q 502 451 506 451 q 511 451 511 440 q 511 430 504 419 q 480 380 429 333 q 371 279 320 247 q 314 244 322 236 q 359 193 403 144 q 440 105 483 59 q 511 29 527 29 l 556 29 q 560 29 561 27 q 562 26 562 24 z"},"u":{"x_min":0,"x_max":546,"ha":546,"o":"m 522 20 q 522 16 517 13 q 494 8 463 1 q 453 -2 437 -10 q 431 -13 430 -13 q 426 -13 417 -6 q 399 8 377 60 q 375 66 367 61 q 349 45 278 6 q 251 -6 185 -6 q 143 -6 113 29 q 85 62 85 105 l 85 294 q 85 417 64 417 l 10 417 q 3 417 3 422 l 3 442 q 3 447 7 447 l 70 447 q 115 447 143 451 q 164 454 174 454 q 180 454 180 441 q 180 440 179 292 q 178 144 178 131 q 178 84 193 69 q 208 53 251 53 q 290 53 329 71 q 347 82 365 92 q 370 92 370 100 q 370 100 370 346 q 370 414 352 414 l 299 414 q 292 414 292 419 l 292 439 q 292 444 297 444 l 373 444 q 405 444 428 447 q 432 448 445 449 q 457 451 461 451 q 468 452 468 437 q 468 435 467 284 q 466 133 466 125 q 466 55 515 28 q 522 24 522 20 z"},"]":{"x_min":0,"x_max":387,"ha":387,"o":"m 273 -239 q 273 -253 259 -253 l 19 -253 q 13 -253 13 -247 l 13 -231 q 13 -227 20 -227 l 152 -227 q 159 -227 175 -229 q 181 -230 183 -227 q 185 -224 184 -216 q 182 -166 182 -163 q 182 -153 183 78 q 183 310 183 317 l 183 658 q 183 679 187 691 q 188 696 186 699 q 185 702 179 701 q 163 699 146 699 l 20 699 q 14 699 14 705 l 14 721 q 14 725 21 725 l 265 725 q 274 725 274 714 l 274 315 q 274 303 273 34 q 273 -235 273 -239 z"},"U":{"x_min":0,"x_max":764,"ha":764,"o":"m 738 636 q 738 630 734 630 l 714 630 q 668 630 667 629 q 667 633 665 570 q 663 501 663 438 q 661 349 663 277 q 667 124 588 53 q 525 -4 415 -4 q 310 -4 246 16 q 162 42 134 95 q 109 142 106 233 q 104 293 104 516 q 104 630 83 630 l 27 630 q 22 630 22 635 l 22 656 q 22 662 27 662 l 279 662 q 285 662 285 658 l 285 637 q 285 630 281 630 l 223 630 q 216 630 215 622 q 212 605 212 322 q 212 214 218 180 q 230 112 283 76 q 336 40 427 40 q 519 40 574 99 q 596 123 609 173 q 620 216 620 259 q 620 427 618 480 q 612 630 587 630 l 523 630 q 519 630 518 631 q 517 633 517 635 l 517 657 q 517 660 518 661 q 519 662 523 662 l 732 662 q 736 662 737 661 q 738 659 738 657 z"},"o":{"x_min":0,"x_max":522,"ha":522,"o":"m 490 229 q 490 163 467 117 q 438 58 385 26 q 332 -6 261 -6 q 196 -6 161 11 q 89 47 64 97 q 33 158 32 225 q 31 299 67 357 q 99 409 157 435 q 203 456 284 456 q 349 456 393 430 q 444 400 467 348 q 490 296 490 229 z m 394 205 q 393 300 348 360 q 301 424 232 421 q 179 418 159 389 q 130 346 130 266 q 130 185 161 112 q 180 67 213 43 q 239 24 276 24 q 315 24 335 38 q 365 59 381 101 q 395 138 394 205 z"},"N":{"x_min":0,"x_max":781,"ha":781,"o":"m 762 636 q 762 630 756 630 l 687 630 q 676 630 676 617 q 676 613 675 488 q 674 363 674 352 q 674 342 672 178 q 670 14 670 5 q 670 -15 662 -18 q 647 -24 638 -12 q 504 150 362 322 q 290 416 190 534 q 183 541 180 530 q 178 524 173 366 q 167 206 167 162 q 167 32 194 32 l 254 32 q 260 32 260 28 l 260 4 q 260 0 255 0 l 54 0 q 48 0 48 3 l 48 27 q 48 32 54 32 l 114 32 q 122 32 122 39 l 122 109 q 122 138 131 337 q 140 536 140 540 q 140 630 72 630 l 39 630 q 35 630 35 635 l 35 657 q 35 662 40 662 l 213 662 q 221 662 226 654 q 231 646 312 544 q 393 441 403 430 q 506 307 622 174 q 624 172 626 172 q 630 172 631 186 q 631 195 631 336 q 631 477 630 490 q 623 630 593 630 l 533 630 q 526 630 526 635 l 526 657 q 526 662 532 662 l 755 662 q 762 662 762 658 z"},"+":{"x_min":0,"x_max":506,"ha":506,"o":"m 406 276 q 412 276 368 276 q 325 277 282 277 q 282 218 281 156 q 280 146 251 146 q 219 146 220 153 q 221 218 221 277 q 181 277 133 278 q 84 279 88 279 q 78 279 78 296 q 78 309 83 323 q 87 337 91 337 q 161 336 221 336 q 221 375 222 419 q 223 464 223 460 q 223 470 241 470 q 254 470 269 466 q 284 461 284 457 q 282 395 282 336 q 345 336 402 334 q 414 334 414 306 q 414 276 406 276 z"},"G":{"x_min":0,"x_max":737,"ha":737,"o":"m 734 291 q 734 285 728 285 l 665 285 q 659 285 659 279 q 659 282 658 243 q 657 203 657 172 q 657 98 660 71 q 660 63 653 62 q 629 52 594 37 q 475 -7 382 -7 q 288 -7 224 17 q 140 49 91 115 q 41 184 41 312 q 41 444 127 545 q 191 621 314 654 q 369 669 454 669 q 548 669 609 650 q 643 640 660 632 q 667 629 666 624 q 661 600 655 567 q 650 537 642 502 q 641 498 637 498 q 628 498 628 503 q 628 504 621 534 q 615 559 596 574 q 525 631 405 631 q 298 631 217 541 q 154 471 154 330 q 154 183 226 110 q 305 30 437 30 q 514 30 549 77 q 553 83 553 93 l 553 161 q 553 208 552 226 q 549 285 542 285 l 442 285 q 436 285 436 294 l 436 310 q 436 317 443 317 q 444 317 510 316 q 575 316 584 316 q 593 316 659 316 q 725 317 726 317 q 734 317 734 311 z"},"q":{"x_min":0,"x_max":548,"ha":548,"o":"m 560 -199 q 560 -207 553 -207 q 508 -217 437 -233 q 427 -235 397 -245 q 372 -253 369 -253 q 358 -253 358 -245 q 358 -241 363 -231 q 373 -203 374 -144 q 377 0 377 43 q 377 58 364 47 q 349 35 327 23 q 269 -8 214 -8 q 130 -8 81 55 q 34 115 34 225 q 34 324 96 390 q 158 456 247 456 q 312 456 368 427 q 420 400 422 400 q 439 400 449 449 q 452 463 464 463 q 476 463 476 449 q 476 447 472 174 q 468 -99 468 -109 q 468 -194 486 -192 q 508 -190 540 -181 q 551 -178 556 -178 q 560 -178 560 -183 z m 379 118 q 379 338 376 366 q 375 380 369 385 q 329 419 248 419 q 222 419 195 406 q 169 393 156 374 q 122 326 122 241 q 122 192 141 144 q 155 106 169 93 q 206 57 254 57 q 338 57 373 100 q 379 107 379 118 z"},"d":{"x_min":0,"x_max":586,"ha":586,"o":"m 572 61 q 572 49 568 47 q 521 30 455 6 q 405 -16 387 -16 q 380 -16 380 -5 l 380 29 q 380 66 381 59 q 377 70 370 63 q 343 39 305 16 q 268 -6 205 -6 q 167 -6 126 18 q 83 44 63 84 q 33 146 33 218 q 33 336 98 398 q 153 450 251 450 q 302 450 367 415 q 374 411 374 424 q 374 427 373 512 q 372 593 372 602 q 373 688 348 688 l 285 688 q 280 688 280 694 l 280 710 q 280 717 285 717 l 308 717 q 375 717 421 733 q 465 748 470 748 q 476 748 476 734 q 476 732 475 671 q 473 609 473 598 l 473 140 q 473 49 501 55 q 519 61 545 69 q 561 76 567 76 q 572 76 572 61 z m 380 115 q 380 114 378 171 q 376 231 376 270 q 375 342 372 369 q 371 383 360 389 q 314 417 256 417 q 230 417 200 401 q 172 386 161 370 q 128 323 128 235 q 128 157 161 105 q 191 57 260 57 q 330 57 374 92 q 380 97 380 115 z"},"1":{"x_min":0,"x_max":356,"ha":356,"o":"m 317 5 q 317 0 313 0 l 37 0 q 31 0 31 6 l 31 25 q 31 31 37 31 l 119 31 q 127 31 127 57 q 127 62 128 275 q 129 487 129 493 q 129 565 127 583 q 124 616 79 616 l 45 616 q 39 616 39 622 l 39 642 q 39 648 45 648 l 100 648 q 168 648 198 653 q 228 658 227 658 q 235 658 235 648 q 235 649 230 413 q 226 177 226 158 q 226 31 250 31 l 312 31 q 317 31 317 26 z"},"5":{"x_min":0,"x_max":508,"ha":508,"o":"m 467 648 q 467 638 454 611 q 439 582 427 569 q 419 561 410 560 q 392 558 369 558 q 244 558 159 592 q 151 595 149 589 q 136 540 121 480 q 119 471 121 469 q 124 467 132 469 q 153 475 208 475 q 271 475 321 453 q 365 434 393 408 q 462 345 462 234 q 462 142 391 72 q 362 43 314 20 q 259 -7 172 -7 q 81 -7 28 28 q 16 36 16 41 q 16 45 23 56 q 30 66 34 66 q 36 66 51 60 q 107 34 163 34 q 249 34 307 89 q 331 112 343 145 q 359 187 359 224 q 359 302 292 355 q 268 375 237 385 q 190 401 149 401 q 145 401 117 400 q 89 399 85 399 q 68 399 68 418 q 68 421 91 531 q 114 641 116 648 q 119 660 136 659 q 201 655 265 652 q 394 645 412 645 q 433 645 446 650 q 459 655 460 655 q 467 655 467 648 z"}}}
